Coordinates
version=1
nRows=26
nColumns=22
inDegrees=yes

Units are S.I. units (second, meters, Newtons, ...)
If the header above contains a line with 'inDegrees', this indicates whether rotational values are in degrees (yes) or radians (no).

endheader
time	pelvis_tilt	pelvis_list	pelvis_rotation	pelvis_tx	pelvis_ty	pelvis_tz	hip_flexion_r	hip_adduction_r	hip_rotation_r	knee_angle_r	ankle_angle_r	subtalar_angle_r	hip_flexion_l	hip_adduction_l	hip_rotation_l	knee_angle_l	ankle_angle_l	subtalar_angle_l	lumbar_extension	lumbar_bending	lumbar_rotation
      3.42000000	      3.74090718	     -3.11278238	      4.21968905	     -0.27124426	      0.91371016	     -0.01305747	     22.83608736	      7.07584186	     -4.63690171	    -29.27801919	      3.61618476	     -6.67198527	     -6.34493668	     -1.61995460	      6.59838954	    -50.56420342	      7.93860426	    -10.15598155	    -10.81179278	      4.81605289	    -11.99093854
      3.43000000	      3.67358713	     -3.06639082	      4.27314913	     -0.28295098	      0.91174242	     -0.01343343	     23.64953216	      6.90695170	     -4.68755739	    -29.07498689	      2.64239781	     -6.57313648	     -7.50857305	     -1.31980029	      6.74143589	    -48.45581597	      8.87347346	    -10.52341176	    -10.77775918	      4.78667079	    -12.16716924
      3.44000000	      3.61343969	     -3.05758486	      4.33362316	     -0.29498822	      0.90981645	     -0.01380563	     24.38694614	      6.75657571	     -4.79857923	    -28.68430144	      1.60168298	     -6.41843417	     -8.54993193	     -1.14901357	      6.70569523	    -46.30613264	     10.19808595	    -10.95797774	    -10.79124640	      4.79442738	    -12.27405257
      3.45000000	      3.56289088	     -3.06492619	      4.39703225	     -0.30737003	      0.90797671	     -0.01417651	     25.04888057	      6.59713989	     -4.98041865	    -28.11486105	      0.44195109	     -6.19928788	     -9.45095356	     -1.08288101	      6.46049881	    -44.17179391	     11.83485174	    -11.39516253	    -10.86204600	      4.81286387	    -12.32560145
      3.46000000	      3.54027821	     -3.04132018	      4.47250723	     -0.32011449	      0.90629710	     -0.01459225	     25.61080928	      6.37520049	     -5.22152245	    -27.36761688	     -0.78721261	     -5.75006593	    -10.21665558	     -1.05129037	      6.03830157	    -42.10708559	     13.76292173	    -11.99577131	    -11.02086903	      4.79482404	    -12.36720988
      3.47000000	      3.52029751	     -3.02455567	      4.55513089	     -0.33318032	      0.90476587	     -0.01502179	     26.09371192	      6.13307329	     -5.52562375	    -26.42661279	     -2.16248227	     -5.16094597	    -10.79326148	     -1.08300915	      5.44666889	    -40.19118623	     15.87764249	    -12.50869336	    -11.23102552	      4.78133288	    -12.37289412
      3.48000000	      3.50362981	     -2.97799659	      4.65087008	     -0.34654985	      0.90342881	     -0.01550790	     26.49351604	      5.83195456	     -5.87288102	    -25.30165726	     -3.64447505	     -4.31615616	    -11.17228564	     -1.10921489	      4.76477214	    -38.47143582	     18.10248745	    -13.00680259	    -11.49508493	      4.73816611	    -12.37615247
      3.49000000	      3.48776565	     -2.88569862	      4.76666893	     -0.36018441	      0.90230770	     -0.01601921	     26.81445958	      5.46151067	     -6.24384899	    -24.01722382	     -5.21105526	     -3.16231768	    -11.34146833	     -1.10011937	      4.06055447	    -36.98778903	     20.34557946	    -13.46927346	    -11.80625020	      4.63824920	    -12.40240504
      3.50000000	      3.46838020	     -2.74675475	      4.89363585	     -0.37401920	      0.90141336	     -0.01657058	     27.07004355	      5.02295580	     -6.63612360	    -22.61473049	     -6.83973133	     -1.65459830	    -11.30186581	     -1.03177027	      3.39738361	    -35.75745952	     22.52706218	    -13.89261065	    -12.15100584	      4.48992885	    -12.44605355
      3.51000000	      3.45879475	     -2.56649587	      5.03708242	     -0.38802253	      0.90075194	     -0.01712308	     27.26043442	      4.53078154	     -7.02505287	    -21.15236372	     -8.49860421	      0.17910498	    -11.05336855	     -0.91600214	      2.78398140	    -34.82411326	     24.59925782	    -14.27820140	    -12.54179629	      4.29845911	    -12.55314141
      3.52000000	      3.42541053	     -2.35141638	      5.17693993	     -0.40202846	      0.90031941	     -0.01768873	     27.41175089	      4.00103924	     -7.36608677	    -19.66228630	    -10.11565582	      2.42127925	    -10.63244479	     -0.71215021	      2.36559391	    -34.08600628	     26.46503418	    -14.65768566	    -12.90966118	      4.07018621	    -12.65586350
      3.53000000	      3.40327974	     -2.11942601	      5.30792606	     -0.41603376	      0.90012015	     -0.01821773	     27.52894718	      3.45492028	     -7.67270455	    -18.26789344	    -11.64876481	      4.92258650	    -10.05889002	     -0.46443130	      2.05302641	    -33.58736235	     28.12901357	    -15.03637859	    -13.29908644	      3.82765090	    -12.79237178
      3.54000000	      3.38916909	     -1.89602738	      5.41269413	     -0.42992110	      0.90015471	     -0.01870202	     27.62999599	      2.92261244	     -7.93925945	    -17.05522973	    -13.00983778	      7.58562035	     -9.37784661	     -0.18706225	      1.86314250	    -33.26115467	     29.57542499	    -15.43891416	    -13.68488024	      3.60029928	    -12.92254310
      3.55000000	      3.38924361	     -1.69926739	      5.46660212	     -0.44361886	      0.90043129	     -0.01912263	     27.73505344	      2.42673903	     -8.17382839	    -16.13010695	    -14.12037307	     10.24829106	     -8.63240079	      0.10588035	      1.77039230	    -33.05952292	     30.80207649	    -15.87696711	    -14.06265830	      3.40790890	    -13.01473123
      3.56000000	      3.41443382	     -1.54271031	      5.45542882	     -0.45707753	      0.90097656	     -0.01946934	     27.85408707	      1.98267732	     -8.38009231	    -15.58742217	    -14.92341645	     12.72032258	     -7.86611550	      0.39536585	      1.73322808	    -32.93650824	     31.79853751	    -16.35594851	    -14.43893245	      3.26476360	    -13.04557324
      3.57000000	      3.45915326	     -1.44606510	      5.36705626	     -0.47023133	      0.90179049	     -0.01974043	     28.00758231	      1.60643414	     -8.59561971	    -15.50053282	    -15.36667412	     14.79435651	     -7.10409084	      0.65094356	      1.69267108	    -32.84660081	     32.59455090	    -16.88187077	    -14.79304128	      3.19323189	    -13.01523827
      3.58000000	      3.53223076	     -1.40464600	      5.17245988	     -0.48306427	      0.90289875	     -0.01991483	     28.19229905	      1.30319619	     -8.79454525	    -15.91130124	    -15.40584211	     16.35042627	     -6.39025053	      0.88754126	      1.65164077	    -32.74393491	     33.20368671	    -17.44082464	    -15.13989784	      3.18107853	    -12.85114410
      3.59000000	      3.63214156	     -1.41578868	      4.87883141	     -0.49555502	      0.90430222	     -0.01999607	     28.40461149	      1.06611827	     -8.96077146	    -16.83390786	    -15.03697749	     17.26896729	     -5.73682259	      1.08317626	      1.53451012	    -32.60577666	     33.64289709	    -18.01243180	    -15.47329475	      3.22534361	    -12.60877516
      3.60000000	      3.75144491	     -1.47320240	      4.49719379	     -0.50769201	      0.90599754	     -0.01999797	     28.62767375	      0.88660805	     -9.06251858	    -18.22721967	    -14.30951988	     17.57194689	     -5.15223630	      1.23518626	      1.33013948	    -32.40680546	     33.92088119	    -18.56968030	    -15.78488215	      3.31421626	    -12.26398831
      3.61000000	      3.86601261	     -1.56990353	      4.04436699	     -0.51948813	      0.90792732	     -0.01994092	     28.85996651	      0.75657336	     -9.06113261	    -20.02835937	    -13.25636009	     17.31700642	     -4.60916400	      1.34960953	      1.05651432	    -32.15478351	     34.08351631	    -19.19767682	    -16.04780228	      3.44048367	    -11.84988239
      3.62000000	      3.97240890	     -1.66374902	      3.53340355	     -0.53095728	      0.91007476	     -0.01980530	     29.08532359	      0.64375840	     -8.88941135	    -22.17943983	    -11.93202918	     16.56949759	     -4.11883064	      1.45773924	      0.70501899	    -31.82250042	     34.07922017	    -19.74444153	    -16.26401129	      3.54729948	    -11.39394910
      3.63000000	      4.06653561	     -1.81186172	      3.02737803	     -0.54212516	      0.91238851	     -0.01965382	     29.25228306	      0.59694721	     -8.58563690	    -24.54331561	    -10.36330065	     15.25919546	     -3.63375985	      1.48162894	      0.30079214	    -31.48424692	     34.01595743	    -20.31861257	    -16.42379060	      3.71736838	    -10.95635496
      3.64000000	      4.12832299	     -1.93788244	      2.51480187	     -0.55302393	      0.91481932	     -0.01945679	     29.38463866	      0.56004386	     -8.08419369	    -27.08440956	     -8.67380778	     13.73747850	     -3.16356158	      1.51078985	     -0.12759773	    -31.08094763	     33.80952596	    -20.76884449	    -16.51332317	      3.85119649	    -10.53009775
      3.65000000	      4.15663533	     -2.06828516	      2.04179741	     -0.56368508	      0.91731822	     -0.01924264	     29.45310365	      0.55518728	     -7.44114968	    -29.70769835	     -6.90759301	     12.04081591	     -2.67949003	      1.50544236	     -0.54968360	    -30.65725488	     33.51036169	    -21.14100143	    -16.53012609	      3.98643652	    -10.15655122
      3.66000000	      4.14874224	     -2.19806216	      1.63348046	     -0.57415732	      0.91983181	     -0.01904305	     29.44879303	      0.57455823	     -6.69736203	    -32.35362007	     -5.13373581	     10.28282194	     -2.16192593	      1.46982691	     -0.94047850	    -30.23709914	     33.12239836	    -21.43604124	    -16.47711544	      4.12523301	     -9.86985316
      3.67000000	      4.11143855	     -2.33961272	      1.30974103	     -0.58444716	      0.92232882	     -0.01887167	     29.34724664	      0.62434608	     -5.91840737	    -34.96166787	     -3.39079889	      8.52452865	     -1.61591456	      1.39315328	     -1.25786607	    -29.82391745	     32.68503780	    -21.66665601	    -16.36069364	      4.28329059	     -9.66740849
